<svg width="23" height="26" viewBox="0 0 23 26" fill="none" xmlns="http://www.w3.org/2000/svg">
<mask id="path-1-inside-1_324_1713" fill="white">
<path d="M22.5385 7.69474C22.4358 7.58778 22.3112 7.5099 22.1754 7.46773C22.0396 7.42556 21.8967 7.42036 21.7587 7.45255C21.5888 6.77634 21.2999 6.14395 20.9085 5.59172C20.5172 5.03949 20.0312 4.57831 19.4784 4.23466C18.9256 3.89101 18.317 3.67168 17.6874 3.58925C17.0578 3.50682 16.4197 3.56293 15.8098 3.75435C15.4259 2.82685 14.8095 2.04089 14.034 1.48986C13.2584 0.938832 12.3563 0.645911 11.4348 0.645911C10.5133 0.645911 9.61111 0.938832 8.83556 1.48986C8.06002 2.04089 7.44366 2.82685 7.05976 3.75435C6.44997 3.56268 5.81198 3.50628 5.18244 3.58838C4.55291 3.67049 3.94421 3.88948 3.39134 4.23278C2.83847 4.57608 2.35229 5.03692 1.96075 5.58885C1.56921 6.14077 1.28001 6.7729 1.10976 7.44892C0.966023 7.41626 0.817172 7.42415 0.676907 7.47186C0.536643 7.51957 0.409465 7.60556 0.307079 7.72193C0.204693 7.8383 0.130383 7.98132 0.090988 8.13781C0.0515932 8.2943 0.0483777 8.45925 0.081637 8.61748L3.42414 24.3403C3.51462 24.7654 3.73216 25.1441 4.04147 25.4152C4.35079 25.6862 4.73374 25.8336 5.1282 25.8334H17.7413C18.1358 25.8336 18.5187 25.6862 18.8281 25.4152C19.1374 25.1441 19.3549 24.7654 19.4454 24.3403L22.7868 8.61748C22.8217 8.45305 22.8171 8.2814 22.7735 8.11954C22.73 7.95768 22.649 7.81124 22.5385 7.69474ZM5.74726 5.48962C6.24734 5.48808 6.73999 5.62371 7.18117 5.88439C7.30027 5.95434 7.43237 5.99286 7.56714 5.99696C7.70192 6.00107 7.83573 5.97063 7.95812 5.90803C8.08052 5.84543 8.18819 5.75237 8.27274 5.6361C8.35729 5.51983 8.41643 5.3835 8.44554 5.23775C8.597 4.48506 8.97568 3.81201 9.51911 3.32965C10.0625 2.84728 10.7383 2.58442 11.4348 2.58442C12.1313 2.58442 12.807 2.84728 13.3504 3.32965C13.8938 3.81201 14.2725 4.48506 14.424 5.23775C14.4531 5.3835 14.5122 5.51983 14.5968 5.6361C14.6813 5.75237 14.789 5.84543 14.9114 5.90803C15.0338 5.97063 15.1676 6.00107 15.3024 5.99696C15.4372 5.99286 15.5693 5.95434 15.6884 5.88439C16.0934 5.64653 16.5415 5.51238 16.9996 5.49185C17.4577 5.47132 17.9141 5.56493 18.3352 5.76576C18.7562 5.9666 19.1312 6.26954 19.4324 6.65224C19.7336 7.03493 19.9533 7.48762 20.0754 7.97689L15.8579 9.30892L12.0855 7.63783C11.6685 7.4532 11.2032 7.4532 10.7862 7.63783L7.01273 9.31134L2.73961 7.69474C2.91819 6.9795 3.3583 6.63101 3.89173 6.18173C4.42517 5.73244 5.07701 5.4893 5.74726 5.48962ZM3.42414 23.8959L0.356228 9.90912L1.35292 14.1515L3.42414 23.8959Z"/>
</mask>
<path d="M22.5385 7.69474C22.4358 7.58778 22.3112 7.5099 22.1754 7.46773C22.0396 7.42556 21.8967 7.42036 21.7587 7.45255C21.5888 6.77634 21.2999 6.14395 20.9085 5.59172C20.5172 5.03949 20.0312 4.57831 19.4784 4.23466C18.9256 3.89101 18.317 3.67168 17.6874 3.58925C17.0578 3.50682 16.4197 3.56293 15.8098 3.75435C15.4259 2.82685 14.8095 2.04089 14.034 1.48986C13.2584 0.938832 12.3563 0.645911 11.4348 0.645911C10.5133 0.645911 9.61111 0.938832 8.83556 1.48986C8.06002 2.04089 7.44366 2.82685 7.05976 3.75435C6.44997 3.56268 5.81198 3.50628 5.18244 3.58838C4.55291 3.67049 3.94421 3.88948 3.39134 4.23278C2.83847 4.57608 2.35229 5.03692 1.96075 5.58885C1.56921 6.14077 1.28001 6.7729 1.10976 7.44892C0.966023 7.41626 0.817172 7.42415 0.676907 7.47186C0.536643 7.51957 0.409465 7.60556 0.307079 7.72193C0.204693 7.8383 0.130383 7.98132 0.090988 8.13781C0.0515932 8.2943 0.0483777 8.45925 0.081637 8.61748L3.42414 24.3403C3.51462 24.7654 3.73216 25.1441 4.04147 25.4152C4.35079 25.6862 4.73374 25.8336 5.1282 25.8334H17.7413C18.1358 25.8336 18.5187 25.6862 18.8281 25.4152C19.1374 25.1441 19.3549 24.7654 19.4454 24.3403L22.7868 8.61748C22.8217 8.45305 22.8171 8.2814 22.7735 8.11954C22.73 7.95768 22.649 7.81124 22.5385 7.69474ZM5.74726 5.48962C6.24734 5.48808 6.73999 5.62371 7.18117 5.88439C7.30027 5.95434 7.43237 5.99286 7.56714 5.99696C7.70192 6.00107 7.83573 5.97063 7.95812 5.90803C8.08052 5.84543 8.18819 5.75237 8.27274 5.6361C8.35729 5.51983 8.41643 5.3835 8.44554 5.23775C8.597 4.48506 8.97568 3.81201 9.51911 3.32965C10.0625 2.84728 10.7383 2.58442 11.4348 2.58442C12.1313 2.58442 12.807 2.84728 13.3504 3.32965C13.8938 3.81201 14.2725 4.48506 14.424 5.23775C14.4531 5.3835 14.5122 5.51983 14.5968 5.6361C14.6813 5.75237 14.789 5.84543 14.9114 5.90803C15.0338 5.97063 15.1676 6.00107 15.3024 5.99696C15.4372 5.99286 15.5693 5.95434 15.6884 5.88439C16.0934 5.64653 16.5415 5.51238 16.9996 5.49185C17.4577 5.47132 17.9141 5.56493 18.3352 5.76576C18.7562 5.9666 19.1312 6.26954 19.4324 6.65224C19.7336 7.03493 19.9533 7.48762 20.0754 7.97689L15.8579 9.30892L12.0855 7.63783C11.6685 7.4532 11.2032 7.4532 10.7862 7.63783L7.01273 9.31134L2.73961 7.69474C2.91819 6.9795 3.3583 6.63101 3.89173 6.18173C4.42517 5.73244 5.07701 5.4893 5.74726 5.48962ZM3.42414 23.8959L0.356228 9.90912L1.35292 14.1515L3.42414 23.8959Z" fill="white"/>
<path d="M19.0582 25.1875V27.1875H20.6778L21.0145 25.6033L19.0582 25.1875ZM13.448 24.8V13.0459H9.44798V24.8H13.448ZM13.448 13.0459V8.61748H9.44798V13.0459H13.448ZM19.0582 23.1875H16.3764V27.1875H19.0582V23.1875ZM21.0145 25.6033L24.0147 11.4887L20.1021 10.657L17.1019 24.7717L21.0145 25.6033ZM22.5385 7.69474L25.4414 4.94277L25.4324 4.93326L25.4233 4.92381L22.5385 7.69474ZM21.7587 7.45255L17.8792 8.42729L18.8376 12.2415L22.6675 11.3479L21.7587 7.45255ZM15.8098 3.75435L12.1138 5.28412L13.5141 8.66717L17.0075 7.57082L15.8098 3.75435ZM11.4348 0.645911V-3.35409V0.645911ZM7.05976 3.75435L5.86035 7.57029L9.35479 8.66866L10.7557 5.28412L7.05976 3.75435ZM1.10976 7.44892L0.223527 11.3495L4.0343 12.2153L4.98865 8.42576L1.10976 7.44892ZM0.081637 8.61748L-3.83283 9.44029L-3.83093 9.44924L0.081637 8.61748ZM3.42414 24.3403L-0.488428 25.1721L-0.488219 25.173L3.42414 24.3403ZM5.1282 25.8334V21.8334L5.12638 21.8334L5.1282 25.8334ZM17.7413 25.8334L17.7431 21.8334H17.7413V25.8334ZM19.4454 24.3403L23.3577 25.173L23.358 25.1718L19.4454 24.3403ZM22.7868 8.61748L26.6994 9.44899L26.6998 9.447L22.7868 8.61748ZM5.74726 5.48962L5.74535 9.48962L5.75249 9.48963L5.75963 9.4896L5.74726 5.48962ZM7.18117 5.88439L5.14633 9.32816L5.15558 9.33359L7.18117 5.88439ZM8.44554 5.23775L4.52414 4.44868L4.52302 4.4543L8.44554 5.23775ZM11.4348 2.58442V6.58442V2.58442ZM14.424 5.23775L18.3465 4.4543L18.3454 4.44868L14.424 5.23775ZM15.6884 5.88439L17.7139 9.33359L17.714 9.33356L15.6884 5.88439ZM20.0754 7.97689L21.2801 11.7912L24.867 10.6583L23.9564 7.00856L20.0754 7.97689ZM15.8579 9.30892L14.2378 12.9661L15.6205 13.5787L17.0626 13.1232L15.8579 9.30892ZM12.0855 7.63783L13.7056 3.9806L13.7047 3.98017L12.0855 7.63783ZM10.7862 7.63783L9.16705 3.98017L9.1645 3.9813L10.7862 7.63783ZM7.01273 9.31134L5.59736 13.0526L7.13326 13.6336L8.6344 12.9679L7.01273 9.31134ZM2.73961 7.69474L-1.14126 6.72581L-2.00296 10.1772L1.32424 11.436L2.73961 7.69474ZM3.42414 23.8959L-0.482978 24.7529L7.33673 23.0642L3.42414 23.8959ZM0.356228 9.90912L4.25021 8.99429L-3.55089 10.7661L0.356228 9.90912ZM1.35292 14.1515L5.26551 13.3199L5.25664 13.2782L5.24689 13.2367L1.35292 14.1515ZM25.4233 4.92381C24.8731 4.35102 24.1715 3.89919 23.3618 3.64771L20.9891 11.2878C20.4509 11.1206 19.9984 10.8245 19.6537 10.4657L25.4233 4.92381ZM23.3618 3.64771C22.5491 3.39534 21.6829 3.36279 20.8498 3.55718L22.6675 11.3479C22.1104 11.4779 21.5301 11.4558 20.9891 11.2878L23.3618 3.64771ZM25.6381 6.47782C25.3512 5.33609 24.8585 4.24751 24.1722 3.27904L17.6449 7.9044C17.7412 8.04038 17.8263 8.21658 17.8792 8.42729L25.6381 6.47782ZM24.1722 3.27904C23.4855 2.30991 22.6133 1.47361 21.5903 0.837586L17.3666 7.63174C17.4491 7.68301 17.549 7.76907 17.6449 7.9044L24.1722 3.27904ZM21.5903 0.837586C20.5657 0.200672 19.416 -0.218572 18.2066 -0.376902L17.1681 7.5554C17.2179 7.56193 17.2855 7.58136 17.3666 7.63174L21.5903 0.837586ZM18.2066 -0.376902C16.9966 -0.535323 15.7727 -0.426384 14.612 -0.0621143L17.0075 7.57082C17.0667 7.55225 17.119 7.54897 17.1681 7.5554L18.2066 -0.376902ZM19.5057 2.22458C18.8506 0.641967 17.7741 -0.759593 16.3507 -1.7709L11.7172 4.75062C11.8449 4.84137 12.0011 5.01174 12.1138 5.28412L19.5057 2.22458ZM16.3507 -1.7709C14.9218 -2.78619 13.2148 -3.35409 11.4348 -3.35409V4.64591C11.4978 4.64591 11.5951 4.66385 11.7172 4.75062L16.3507 -1.7709ZM11.4348 -3.35409C9.65475 -3.35409 7.94776 -2.78619 6.51878 -1.7709L11.1523 4.75062C11.2745 4.66385 11.3718 4.64591 11.4348 4.64591V-3.35409ZM6.51878 -1.7709C5.09542 -0.759593 4.0189 0.641967 3.36385 2.22458L10.7557 5.28412C10.8684 5.01174 11.0246 4.84137 11.1523 4.75062L6.51878 -1.7709ZM8.25918 -0.0615898C7.09879 -0.426318 5.87511 -0.535827 4.66515 -0.378025L5.69973 7.55479C5.74884 7.54839 5.80115 7.55168 5.86035 7.57029L8.25918 -0.0615898ZM4.66515 -0.378025C3.45587 -0.220313 2.30603 0.198288 1.28127 0.8346L5.50141 7.63096C5.58239 7.58067 5.64994 7.56129 5.69973 7.55479L4.66515 -0.378025ZM1.28127 0.8346C0.257957 1.47002 -0.614505 2.30577 -1.30169 3.27444L5.22319 7.90326C5.31909 7.76808 5.41898 7.68214 5.50141 7.63096L1.28127 0.8346ZM-1.30169 3.27444C-1.9884 4.24244 -2.48167 5.33063 -2.76913 6.47208L4.98865 8.42576C5.04169 8.21516 5.12682 8.0391 5.22319 7.90326L-1.30169 3.27444ZM1.996 3.54833C1.12705 3.3509 0.225659 3.4003 -0.611132 3.68491L1.96495 11.2588C1.40868 11.448 0.804998 11.4816 0.223527 11.3495L1.996 3.54833ZM-0.611132 3.68491C-1.44441 3.96833 -2.15402 4.46367 -2.69604 5.07972L3.3102 10.3641C2.97295 10.7475 2.5177 11.0708 1.96495 11.2588L-0.611132 3.68491ZM-2.69604 5.07972C-3.23619 5.69365 -3.59987 6.41403 -3.78799 7.16133L3.96997 9.11429C3.86063 9.5486 3.64557 9.98296 3.3102 10.3641L-2.69604 5.07972ZM-3.78799 7.16133C-3.97603 7.90828 -3.99083 8.68858 -3.83282 9.44029L3.99609 7.79466C4.08758 8.22991 4.07922 8.68032 3.96997 9.11429L-3.78799 7.16133ZM-3.83093 9.44924L-0.488427 25.1721L7.3367 23.5085L3.9942 7.78571L-3.83093 9.44924ZM-0.488219 25.173C-0.228984 26.391 0.408918 27.5506 1.40542 28.4237L6.67753 22.4066C7.0554 22.7377 7.25822 23.1398 7.33649 23.5075L-0.488219 25.173ZM1.40542 28.4237C2.41068 29.3045 3.72089 29.834 5.13002 29.8334L5.12638 21.8334C5.74659 21.8331 6.2909 22.0679 6.67753 22.4066L1.40542 28.4237ZM5.1282 29.8334H17.7413V21.8334H5.1282V29.8334ZM17.7395 29.8334C19.1486 29.834 20.4588 29.3045 21.4641 28.4237L16.192 22.4066C16.5786 22.0679 17.1229 21.8331 17.7431 21.8334L17.7395 29.8334ZM21.4641 28.4237C22.4606 27.5505 23.0985 26.3909 23.3577 25.173L15.533 23.5075C15.6113 23.1398 15.8141 22.7377 16.192 22.4066L21.4641 28.4237ZM23.358 25.1718L26.6994 9.44899L18.8742 7.78597L15.5328 23.5088L23.358 25.1718ZM26.6998 9.447C26.8654 8.66618 26.8444 7.85406 26.6361 7.08023L18.9109 9.15886C18.7898 8.70874 18.7779 8.23993 18.8738 7.78795L26.6998 9.447ZM26.6361 7.08023C26.4278 6.30591 26.0295 5.56311 25.4414 4.94277L19.6356 10.4467C19.2684 10.0594 19.0322 9.60945 18.9109 9.15886L26.6361 7.08023ZM5.75963 9.4896C5.52123 9.49034 5.30898 9.42425 5.14633 9.32815L9.216 2.44064C8.171 1.82317 6.97344 1.48581 5.73489 1.48964L5.75963 9.4896ZM5.15558 9.33359C5.83854 9.73467 6.62323 9.97009 7.44548 9.99511L7.68881 1.99882C8.24151 2.01563 8.76201 2.174 9.20676 2.43519L5.15558 9.33359ZM7.44548 9.99511C8.26805 10.0201 9.06888 9.83273 9.77948 9.4693L6.13676 2.34676C6.60257 2.10853 7.13578 1.98199 7.68881 1.99882L7.44548 9.99511ZM9.77948 9.4693C10.4873 9.10729 11.071 8.58934 11.5078 7.9886L5.03767 3.2836C5.30542 2.91539 5.67371 2.58358 6.13676 2.34676L9.77948 9.4693ZM11.5078 7.9886C11.9438 7.38913 12.2297 6.71379 12.3681 6.0212L4.52302 4.4543C4.60313 4.05321 4.77084 3.65053 5.03767 3.2836L11.5078 7.9886ZM12.3669 6.02681C12.3573 6.07481 12.3194 6.19249 12.1745 6.32114L6.86374 0.338156C5.63196 1.43153 4.83672 2.89531 4.52414 4.44868L12.3669 6.02681ZM12.1745 6.32114C12.0206 6.45773 11.7623 6.58442 11.4348 6.58442V-1.41558C9.71421 -1.41558 8.10447 -0.763163 6.86374 0.338156L12.1745 6.32114ZM11.4348 6.58442C11.1072 6.58442 10.8489 6.45773 10.695 6.32114L16.0058 0.338156C14.7651 -0.763163 13.1553 -1.41558 11.4348 -1.41558V6.58442ZM10.695 6.32114C10.5501 6.19249 10.5122 6.07481 10.5026 6.02681L18.3454 4.44868C18.0328 2.89531 17.2376 1.43153 16.0058 0.338156L10.695 6.32114ZM10.5015 6.0212C10.6398 6.71379 10.9258 7.38913 11.3617 7.9886L17.8319 3.2836C18.0987 3.65053 18.2664 4.05321 18.3465 4.4543L10.5015 6.0212ZM11.3617 7.9886C11.7986 8.58934 12.3822 9.10729 13.09 9.4693L16.7328 2.34676C17.1958 2.58358 17.5641 2.91539 17.8319 3.2836L11.3617 7.9886ZM13.09 9.4693C13.8006 9.83273 14.6015 10.0201 15.424 9.99511L15.1807 1.99882C15.7337 1.98199 16.267 2.10853 16.7328 2.34676L13.09 9.4693ZM15.424 9.99511C16.2463 9.97009 17.031 9.73467 17.7139 9.33359L13.6628 2.43519C14.1075 2.174 14.628 2.01563 15.1807 1.99882L15.424 9.99511ZM17.714 9.33356C17.5714 9.41731 17.3877 9.47847 17.1787 9.48784L16.8205 1.49586C15.6953 1.5463 14.6154 1.87575 13.6627 2.43522L17.714 9.33356ZM17.1787 9.48784C16.9693 9.49723 16.7738 9.45276 16.6131 9.3761L20.0572 2.15542C19.0544 1.67709 17.9461 1.44542 16.8205 1.49586L17.1787 9.48784ZM16.6131 9.3761C16.4549 9.30062 16.3509 9.20454 16.2891 9.12608L22.5756 4.17839C21.9115 3.33454 21.0576 2.63258 20.0572 2.15542L16.6131 9.3761ZM16.2891 9.12608C16.2283 9.04884 16.2041 8.98436 16.1944 8.94522L23.9564 7.00856C23.7025 5.99088 23.2388 5.02102 22.5756 4.17839L16.2891 9.12608ZM18.8707 4.16261L14.6532 5.49464L17.0626 13.1232L21.2801 11.7912L18.8707 4.16261ZM17.478 5.6517L13.7056 3.9806L10.4654 11.2951L14.2378 12.9661L17.478 5.6517ZM13.7047 3.98017C12.2564 3.33909 10.6153 3.33909 9.16705 3.98017L12.4053 11.2955C11.7912 11.5673 11.0805 11.5673 10.4664 11.2955L13.7047 3.98017ZM9.1645 3.9813L5.39106 5.65481L8.6344 12.9679L12.4078 11.2944L9.1645 3.9813ZM8.42811 5.57012L4.15499 3.95352L1.32424 11.436L5.59736 13.0526L8.42811 5.57012ZM6.62049 8.66367C6.58817 8.79312 6.53348 8.9442 6.45046 9.10007C6.36847 9.25401 6.28264 9.368 6.22232 9.43852C6.1684 9.50156 6.14131 9.52192 6.18583 9.4819C6.20719 9.46271 6.23807 9.43574 6.28712 9.39404C6.34147 9.34784 6.38877 9.30833 6.46854 9.24115L1.31492 3.12231C0.926184 3.44972 -0.603072 4.5702 -1.14126 6.72581L6.62049 8.66367ZM6.46854 9.24115C6.31209 9.37292 6.05952 9.48977 5.74535 9.48962L5.74917 1.48962C4.09451 1.48884 2.53825 2.09196 1.31492 3.12231L6.46854 9.24115ZM7.33125 23.0389L4.26334 9.05212L-3.55089 10.7661L-0.482978 24.7529L7.33125 23.0389ZM-3.53775 10.824L-2.54106 15.0663L5.24689 13.2367L4.25021 8.99429L-3.53775 10.824ZM-2.55968 14.9831L-0.488454 24.7275L7.33673 23.0642L5.26551 13.3199L-2.55968 14.9831Z" fill="#FFC319" mask="url(#path-1-inside-1_324_1713)"/>
</svg>
