<svg width="25" height="33" viewBox="0 0 25 33" fill="none" xmlns="http://www.w3.org/2000/svg">
<path d="M6.22942 6.46835L6.23029 4.90625C6.22901 4.90625 6.22773 4.90625 6.22645 4.90625C6.22494 4.90625 6.22342 4.90626 6.22191 4.90626L6.22758 6.46835M6.22942 6.46835C6.2288 6.46835 6.22819 6.46835 6.22758 6.46835M6.22942 6.46835L6.22917 6.90625M6.22942 6.46835C6.46498 6.46861 6.70374 6.51117 6.94294 6.59946L8.04025 7.00444M6.22758 6.46835L6.22917 6.90625M6.22758 6.46835C6.12664 6.46833 6.0263 6.47608 5.92675 6.49132C5.59203 6.54258 5.23657 6.68351 4.88324 6.94112C4.62728 7.12775 4.37606 7.37345 4.14473 7.67952L6.22917 6.90625M6.22917 6.90625L16.4495 7.06133L16.2201 7.14588L15.8571 7.27965C15.8151 7.23623 15.776 7.18813 15.7403 7.13581L15.7219 7.08366L15.5464 6.58585L15.5464 6.58582L15.5016 6.45877C15.4264 6.07672 15.3112 5.71239 15.1606 5.37523C15.1018 5.24345 15.0375 5.11582 14.9681 4.99291C14.8217 4.6601 14.6511 4.36293 14.4643 4.1036C14.2666 3.82919 14.0508 3.59714 13.8266 3.41002L14.9458 2.06845M8.04025 7.00444L7.76555 7.40281L8.0416 7.00494M8.04025 7.00444L8.2009 6.77147L8.20698 6.76265L8.26643 6.67645L8.40979 6.46854L8.41035 6.46773L8.90086 5.75639C8.73849 5.64443 8.51498 5.55524 8.25046 5.54579C7.98492 5.5363 7.74852 5.60982 7.56829 5.71804C7.39391 5.82277 7.29067 5.94715 7.23471 6.0375C7.17961 6.12647 7.15776 6.20122 7.14892 6.25156L7.50134 5.08646C8.00213 5.23175 8.47506 5.46096 8.90558 5.75966L8.41389 6.46834L8.41334 6.46914L8.26858 6.67778L8.20683 6.76678L8.20214 6.77354L8.0416 7.00494M8.04025 7.00444L8.0416 7.00494M8.0416 7.00494L8.19628 7.06203L8.42639 7.14695L8.78803 7.28042C8.83026 7.2368 8.8696 7.18843 8.90558 7.13581L8.92396 7.08366L9.09944 6.58585L9.09945 6.58582L9.14423 6.45877C9.21948 6.07672 9.33466 5.71239 9.48523 5.37523C9.54409 5.24345 9.60834 5.11583 9.67774 4.99292C9.82413 4.6601 9.99477 4.36293 10.1816 4.1036C10.3792 3.82919 10.595 3.59714 10.8193 3.41002L9.70004 2.06845M9.70004 2.06845L10.8193 3.41002C11.3276 2.98592 11.8498 2.81255 12.3229 2.81255C12.796 2.81255 13.3182 2.98591 13.8266 3.41002L14.9458 2.06845M9.70004 2.06845C10.4628 1.55561 11.3587 1.25131 12.3229 1.25131C13.2871 1.25131 14.183 1.55561 14.9458 2.06845M9.70004 2.06845C9.38486 2.28035 9.09241 2.52786 8.82726 2.80421C8.45676 3.19037 8.14348 3.62683 7.88788 4.09656C7.82639 4.23136 7.76844 4.36917 7.71418 4.50977L7.63542 4.72316L16.758 4.09655M14.9458 2.06845C15.261 2.28035 15.5534 2.52786 15.8186 2.80421C16.1891 3.19037 16.5024 3.62682 16.758 4.09655M16.758 4.09655C16.8205 4.23363 16.8794 4.37383 16.9344 4.51692L17.0104 4.72316L17.0512 4.7088M16.758 4.09655L15.7455 5.75603M17.0512 4.7088C17.1014 4.82912 17.1483 4.95098 17.1917 5.07413M17.0512 4.7088L17.1242 4.68306C17.0997 4.69129 17.0754 4.69975 17.051 4.70844C17.0511 4.70856 17.0511 4.70868 17.0512 4.7088ZM17.1917 5.07413C17.176 5.07852 17.1603 5.08298 17.1447 5.08753C16.6452 5.23264 16.1743 5.46044 15.7455 5.75603M17.1917 5.07413C17.2734 5.30583 17.343 5.54213 17.4004 5.78139C17.4377 5.93701 17.4699 6.09388 17.4969 6.25156C17.4881 6.20122 17.4662 6.12647 17.4111 6.0375C17.3552 5.94715 17.2519 5.82277 17.0775 5.71805C16.8973 5.60982 16.6609 5.5363 16.3954 5.54579C16.1311 5.55523 15.9078 5.64424 15.7455 5.75603M17.1917 5.07413C17.5109 4.98502 17.8416 4.92963 18.1801 4.91182C18.442 4.89803 18.7017 4.90713 18.9572 4.93776C19.5682 5.01101 20.1556 5.20741 20.6935 5.50868L20.3133 6.18747M15.7455 5.75603L20.3133 6.18747M20.3133 6.18747L20.3133 6.18749L20.3133 6.18746L20.3133 6.18744L20.3133 6.18747ZM0.400403 9.71464L0.878528 10.0729L0.400403 9.71464ZM0.400403 9.71464C0.290703 9.86104 0.211085 10.041 0.168877 10.2378L0.400403 9.71464ZM23.615 9.98654L23.5788 10.0858L23.615 9.98654ZM23.8308 9.39484L23.8262 9.40748L23.8308 9.39484ZM17.7574 13.5864L22.2586 11.9171L18.9378 30.2649C18.9378 30.265 18.9377 30.2652 18.9377 30.2654C18.9184 30.3714 18.8885 30.4484 18.8622 30.5H5.78369C5.75732 30.4484 5.72738 30.3713 5.70811 30.2653C5.70809 30.2652 5.70806 30.265 5.70803 30.2649L5.61016 29.7243L5.70812 29.7062L3.48896 17.4472L3.48568 17.4291L3.48207 17.4111L2.41779 12.0919L2.35273 11.7325L2.77527 11.8453L2.79078 11.773L6.7731 13.542L7.65393 13.9333L8.50879 13.4881L12.3242 11.5012L16.1391 13.4855L16.9259 13.8948L17.7574 13.5864ZM2.17674 7.03383L2.17219 7.03108L2.17674 7.03383Z" fill="white" stroke="#FFC319" stroke-width="4"/>
</svg>
