<svg width="18" height="24" viewBox="0 0 18 24" fill="none" xmlns="http://www.w3.org/2000/svg">
<path d="M1 20.6918C1 17.7425 2.9398 15.2303 5.57605 14.7655L5.81351 14.7236C7.92448 14.3514 10.0755 14.3514 12.1865 14.7236L12.424 14.7655C15.0602 15.2303 17 17.7425 17 20.6918C17 21.9666 16.0646 23 14.9107 23H3.08929C1.93541 23 1 21.9666 1 20.6918Z" stroke="#FFC319" stroke-width="1.5"/>
<path d="M13.6667 5.8125C13.6667 8.47037 11.5774 10.625 9.00002 10.625C6.42269 10.625 4.33336 8.47037 4.33336 5.8125C4.33336 3.15463 6.42269 1 9.00002 1C11.5774 1 13.6667 3.15463 13.6667 5.8125Z" stroke="#FFC319" stroke-width="1.5"/>
</svg>
